<svg width="523" height="129" viewBox="0 0 523 129" fill="none" xmlns="http://www.w3.org/2000/svg">
<path d="M60.934 74.424L63.238 72.76C66.1393 71.0533 68.1873 70.2 69.382 70.2C72.0273 70.2 74.886 72.5893 77.958 77.368C79.8353 80.3547 80.774 82.744 80.774 84.536C80.774 86.328 80.1767 87.8213 78.982 89.016C77.8727 90.2107 76.55 91.2773 75.014 92.216C73.478 93.1547 71.9847 94.0507 70.534 94.904C69.1687 95.7573 66.31 96.8667 61.958 98.232C57.606 99.5973 53.382 100.28 49.286 100.28C45.2753 100.28 41.1793 99.768 36.998 98.744C32.902 97.6347 28.6353 95.8427 24.198 93.368C19.846 90.808 15.9207 87.736 12.422 84.152C8.92334 80.4827 6.022 75.832 3.718 70.2C1.49934 64.4827 0.390002 58.296 0.390002 51.64C0.390002 44.984 1.49934 38.968 3.718 33.592C5.93667 28.1307 8.75267 23.6507 12.166 20.152C15.6647 16.568 19.6327 13.5813 24.07 11.192C32.4327 6.584 40.838 4.28 49.286 4.28C53.2967 4.28 57.35 4.92 61.446 6.2C65.6273 7.39466 68.7847 8.632 70.918 9.91199L73.99 11.704C75.526 12.6427 76.7207 13.4107 77.574 14.008C79.7927 15.8 80.902 17.848 80.902 20.152C80.902 22.3707 80.006 24.7173 78.214 27.192C74.886 31.8 71.8993 34.104 69.254 34.104C67.718 34.104 65.542 33.1653 62.726 31.288C59.142 28.3867 54.3633 26.936 48.39 26.936C42.8433 26.936 37.382 28.856 32.006 32.696C29.446 34.5733 27.3127 37.2187 25.606 40.632C23.8993 44.0453 23.046 47.928 23.046 52.28C23.046 56.5467 23.8993 60.3867 25.606 63.8C27.3127 67.2133 29.4887 69.9013 32.134 71.864C37.3393 75.6187 42.758 77.496 48.39 77.496C51.0353 77.496 53.51 77.1547 55.814 76.472C58.2033 75.7893 59.91 75.1067 60.934 74.424ZM122.721 31.8C131.254 31.8 138.337 35.0427 143.969 41.528C149.686 48.0133 152.545 55.9493 152.545 65.336V87.864C152.545 89.8267 152.46 91.32 152.289 92.344C152.204 93.2827 151.82 94.392 151.137 95.672C150.028 97.8907 146.742 99 141.281 99C136.076 99 132.833 97.8907 131.553 95.672C130.87 94.392 130.444 93.24 130.273 92.216C130.188 91.192 130.145 89.656 130.145 87.608V65.208C130.145 61.7093 129.164 58.9787 127.201 57.016C125.238 55.0533 122.721 54.072 119.649 54.072C116.662 54.072 114.017 55.0107 111.713 56.888C109.409 58.68 108.086 60.728 107.745 63.032V87.864C107.745 89.8267 107.66 91.32 107.489 92.344C107.404 93.2827 107.02 94.392 106.337 95.672C105.228 97.8907 101.942 99 96.481 99C91.105 99 87.8197 97.848 86.625 95.544C86.0277 94.264 85.6437 93.1547 85.473 92.216C85.3877 91.2773 85.345 89.784 85.345 87.736V11.192C85.345 9.22933 85.3877 7.77866 85.473 6.84C85.6437 5.81599 86.0277 4.70666 86.625 3.51199C87.8197 1.20799 91.1477 0.0559921 96.609 0.0559921C101.985 0.0559921 105.228 1.20799 106.337 3.51199C107.02 4.792 107.404 5.944 107.489 6.96799C107.66 7.90666 107.745 9.35733 107.745 11.32V39.608C112.012 34.4027 117.004 31.8 122.721 31.8ZM202.781 38.712C203.293 33.9333 206.664 31.544 212.893 31.544C216.221 31.544 218.696 31.8 220.317 32.312C221.938 32.824 223.048 33.72 223.645 35C224.328 36.28 224.712 37.432 224.797 38.456C224.968 39.3947 225.053 40.8453 225.053 42.808V87.608C225.053 89.5707 224.968 91.064 224.797 92.088C224.712 93.0267 224.37 94.136 223.773 95.416C222.578 97.6347 219.634 98.744 214.941 98.744C210.333 98.744 207.218 98.1893 205.597 97.08C204.061 95.8853 203.165 94.1787 202.909 91.96C199.752 96.4827 194.461 98.744 187.037 98.744C179.698 98.744 172.872 95.3733 166.557 88.632C160.242 81.8907 157.085 74.0827 157.085 65.208C157.085 56.248 160.242 48.44 166.557 41.784C172.957 35.0427 179.954 31.672 187.549 31.672C190.45 31.672 193.096 32.184 195.485 33.208C197.874 34.232 199.538 35.2133 200.477 36.152C201.416 37.0053 202.184 37.8587 202.781 38.712ZM179.485 65.336C179.485 68.152 180.594 70.712 182.813 73.016C185.032 75.2347 187.72 76.344 190.877 76.344C194.034 76.344 196.637 75.192 198.685 72.888C200.818 70.584 201.885 68.0667 201.885 65.336C201.885 62.52 200.861 59.9173 198.813 57.528C196.85 55.1387 194.162 53.944 190.749 53.944C187.421 53.944 184.69 55.1387 182.557 57.528C180.509 59.9173 179.485 62.52 179.485 65.336ZM270.583 54.2L262.263 53.688V71.352C262.263 73.656 262.604 75.32 263.287 76.344C264.055 77.368 265.42 77.88 267.383 77.88C269.431 77.88 270.967 77.9653 271.991 78.136C273.1 78.2213 274.252 78.6053 275.447 79.288C277.41 80.3973 278.391 83.256 278.391 87.864C278.391 93.24 277.196 96.5253 274.807 97.72C273.527 98.3173 272.375 98.7013 271.351 98.872C270.412 98.9573 269.004 99 267.127 99C258.252 99 251.511 96.9947 246.903 92.984C242.295 88.9733 239.991 82.1893 239.991 72.632V53.688C238.37 53.944 236.62 54.072 234.743 54.072C232.866 54.072 231.287 53.3467 230.007 51.896C228.812 50.4453 228.215 47.9707 228.215 44.472C228.215 40.9733 228.428 38.456 228.855 36.92C229.282 35.2987 229.879 34.1467 230.647 33.464C232.012 32.3547 233.719 31.8 235.767 31.8L239.991 32.312V19.128C239.991 17.1653 240.034 15.7147 240.119 14.776C240.29 13.8373 240.716 12.8133 241.399 11.704C242.508 9.57066 245.794 8.504 251.255 8.504C257.058 8.504 260.514 10.0827 261.623 13.24C262.05 14.6053 262.263 16.7813 262.263 19.768V32.312C266.018 31.9707 268.834 31.8 270.711 31.8C272.674 31.8 274.124 31.8853 275.063 32.056C276.087 32.1413 277.239 32.5253 278.519 33.208C280.738 34.3173 281.847 37.6027 281.847 43.064C281.847 48.44 280.695 51.7253 278.391 52.92C277.111 53.5173 275.959 53.9013 274.935 54.072C273.996 54.1573 272.546 54.2 270.583 54.2ZM328.851 38.712C329.363 33.9333 332.734 31.544 338.963 31.544C342.291 31.544 344.766 31.8 346.387 32.312C348.008 32.824 349.118 33.72 349.715 35C350.398 36.28 350.782 37.432 350.867 38.456C351.038 39.3947 351.123 40.8453 351.123 42.808V87.608C351.123 89.5707 351.038 91.064 350.867 92.088C350.782 93.0267 350.44 94.136 349.843 95.416C348.648 97.6347 345.704 98.744 341.011 98.744C336.403 98.744 333.288 98.1893 331.667 97.08C330.131 95.8853 329.235 94.1787 328.979 91.96C325.822 96.4827 320.531 98.744 313.107 98.744C305.768 98.744 298.942 95.3733 292.627 88.632C286.312 81.8907 283.155 74.0827 283.155 65.208C283.155 56.248 286.312 48.44 292.627 41.784C299.027 35.0427 306.024 31.672 313.619 31.672C316.52 31.672 319.166 32.184 321.555 33.208C323.944 34.232 325.608 35.2133 326.547 36.152C327.486 37.0053 328.254 37.8587 328.851 38.712ZM305.555 65.336C305.555 68.152 306.664 70.712 308.883 73.016C311.102 75.2347 313.79 76.344 316.947 76.344C320.104 76.344 322.707 75.192 324.755 72.888C326.888 70.584 327.955 68.0667 327.955 65.336C327.955 62.52 326.931 59.9173 324.883 57.528C322.92 55.1387 320.232 53.944 316.819 53.944C313.491 53.944 310.76 55.1387 308.627 57.528C306.579 59.9173 305.555 62.52 305.555 65.336ZM357.485 117.304V42.552C357.485 40.5893 357.528 39.1387 357.613 38.2C357.784 37.2613 358.168 36.1947 358.765 35C359.96 32.696 362.818 31.544 367.341 31.544C371.864 31.544 374.893 32.1413 376.429 33.336C378.05 34.4453 378.989 36.1093 379.245 38.328C382.488 33.8907 387.565 31.672 394.477 31.672C401.474 31.672 408.088 34.9573 414.317 41.528C420.546 48.0987 423.661 55.736 423.661 64.44C423.661 73.144 420.546 80.7813 414.317 87.352C408.173 93.9227 401.602 97.208 394.605 97.208C387.608 97.208 382.53 95.2453 379.373 91.32V117.176C379.373 119.139 379.288 120.589 379.117 121.528C379.032 122.467 378.648 123.533 377.965 124.728C377.368 126.008 376.301 126.904 374.765 127.416C373.229 127.928 371.138 128.184 368.493 128.184C365.848 128.184 363.714 127.928 362.093 127.416C360.557 126.904 359.448 126.051 358.765 124.856C358.168 123.661 357.784 122.595 357.613 121.656C357.528 120.717 357.485 119.267 357.485 117.304ZM382.829 57.016C380.866 59.32 379.885 61.8373 379.885 64.568C379.885 67.2987 380.866 69.816 382.829 72.12C384.877 74.3387 387.437 75.448 390.509 75.448C393.666 75.448 396.312 74.3387 398.445 72.12C400.664 69.9013 401.773 67.384 401.773 64.568C401.773 61.752 400.749 59.2347 398.701 57.016C396.653 54.712 393.965 53.56 390.637 53.56C387.394 53.56 384.792 54.712 382.829 57.016ZM428.145 117.304V42.552C428.145 40.5893 428.188 39.1387 428.273 38.2C428.444 37.2613 428.828 36.1947 429.425 35C430.62 32.696 433.478 31.544 438.001 31.544C442.524 31.544 445.553 32.1413 447.089 33.336C448.71 34.4453 449.649 36.1093 449.905 38.328C453.148 33.8907 458.225 31.672 465.137 31.672C472.134 31.672 478.748 34.9573 484.977 41.528C491.206 48.0987 494.321 55.736 494.321 64.44C494.321 73.144 491.206 80.7813 484.977 87.352C478.833 93.9227 472.262 97.208 465.265 97.208C458.268 97.208 453.19 95.2453 450.033 91.32V117.176C450.033 119.139 449.948 120.589 449.777 121.528C449.692 122.467 449.308 123.533 448.625 124.728C448.028 126.008 446.961 126.904 445.425 127.416C443.889 127.928 441.798 128.184 439.153 128.184C436.508 128.184 434.374 127.928 432.753 127.416C431.217 126.904 430.108 126.051 429.425 124.856C428.828 123.661 428.444 122.595 428.273 121.656C428.188 120.717 428.145 119.267 428.145 117.304ZM453.489 57.016C451.526 59.32 450.545 61.8373 450.545 64.568C450.545 67.2987 451.526 69.816 453.489 72.12C455.537 74.3387 458.097 75.448 461.169 75.448C464.326 75.448 466.972 74.3387 469.105 72.12C471.324 69.9013 472.433 67.384 472.433 64.568C472.433 61.752 471.409 59.2347 469.361 57.016C467.313 54.712 464.625 53.56 461.297 53.56C458.054 53.56 455.452 54.712 453.489 57.016ZM500.085 79.544C500.938 77.8373 502.218 76.6853 503.925 76.088C505.717 75.4907 508.448 75.192 512.117 75.192C515.872 75.192 518.56 76.0027 520.181 77.624C521.888 79.2453 522.741 81.8053 522.741 85.304V87.352C522.741 89.4 522.656 90.936 522.485 91.96C522.4 92.8987 522.016 94.0507 521.333 95.416C519.968 97.8907 516.682 99.128 511.477 99.128C506.357 99.128 502.944 98.3173 501.237 96.696C499.616 94.9893 498.805 91.7467 498.805 86.968C498.805 83.64 499.232 81.1653 500.085 79.544ZM517.237 64.568C515.616 64.9947 513.44 65.208 510.709 65.208C507.978 65.208 505.802 64.9947 504.181 64.568C502.56 64.1413 501.408 63.3733 500.725 62.264C500.128 61.1547 499.744 60.1733 499.573 59.32C499.488 58.4667 499.445 57.144 499.445 55.352V14.776C499.445 12.984 499.488 11.6613 499.573 10.808C499.744 9.86933 500.17 8.84533 500.853 7.73599C501.536 6.62666 502.688 5.85867 504.309 5.432C505.93 4.92 508.106 4.66399 510.837 4.66399C513.568 4.66399 515.744 4.92 517.365 5.432C518.986 5.85867 520.096 6.66933 520.693 7.864C521.376 8.97333 521.76 9.99733 521.845 10.936C522.016 11.7893 522.101 13.112 522.101 14.904V55.48C522.101 57.272 522.016 58.5947 521.845 59.448C521.76 60.3013 521.376 61.2827 520.693 62.392C520.01 63.416 518.858 64.1413 517.237 64.568Z" fill="white"/>
</svg>
