<svg width="299" height="299" viewBox="0 0 299 299" fill="none" xmlns="http://www.w3.org/2000/svg">
<path d="M105.204 0C89.9136 0 77.5185 13.0143 77.5185 29.0682C77.5185 45.122 89.9136 58.1363 105.204 58.1363H128.736C132.559 58.1363 135.657 61.3899 135.657 65.4033C135.657 69.4168 132.559 72.6704 128.736 72.6704H0V101.739C0 117.792 12.3951 130.807 27.6852 130.807H173.032C176.855 130.807 179.954 134.06 179.954 138.074C179.954 142.087 176.855 145.341 173.032 145.341H88.5926C73.3025 145.341 60.9074 158.355 60.9074 174.409C60.9074 190.463 73.3025 203.477 88.5926 203.477H107.972C111.795 203.477 114.894 206.731 114.894 210.744C114.894 214.758 111.795 218.011 107.972 218.011H0V247.079C0 263.133 12.3951 276.147 27.6852 276.147H69.1188L69.1107 296.088C69.1098 298.326 71.4183 299.726 73.2645 298.606L110.276 276.147H166.111C181.401 276.147 193.796 263.133 193.796 247.079C193.796 231.025 181.401 218.011 166.111 218.011H128.736C124.914 218.011 121.815 214.758 121.815 210.744C121.815 206.731 124.914 203.477 128.736 203.477H271.315C286.605 203.477 299 190.463 299 174.409V145.341H193.796C189.974 145.341 186.875 142.087 186.875 138.074C186.875 134.06 189.974 130.807 193.796 130.807H207.639C222.929 130.807 235.324 117.792 235.324 101.739C235.324 85.6846 222.929 72.6704 207.639 72.6704H149.5C145.677 72.6704 142.579 69.4168 142.579 65.4033C142.579 61.3899 145.677 58.1363 149.5 58.1363H271.315C286.605 58.1363 299 45.122 299 29.0682V0H105.204Z" fill="white"/>
</svg>
